<svg width="34" height="34" fill="none" xmlns="http://www.w3.org/2000/svg"><path d="M9.917 21.25h2.833c0 1.53 1.94 2.833 4.25 2.833s4.25-1.303 4.25-2.833c0-1.558-1.473-2.125-4.59-2.876-3.003-.75-6.743-1.686-6.743-5.624 0-2.536 2.082-4.69 4.958-5.412V4.25h4.25v3.088c2.876.723 4.958 2.876 4.958 5.412H21.25c0-1.53-1.94-2.833-4.25-2.833s-4.25 1.303-4.25 2.833c0 1.558 1.473 2.125 4.59 2.876 3.003.75 6.743 1.686 6.743 5.624 0 2.536-2.082 4.69-4.958 5.412v3.088h-4.25v-3.088c-2.876-.723-4.958-2.876-4.958-5.412z" fill="url(#paint0_linear)"/><defs><linearGradient id="paint0_linear" x1="25.632" y1="-34" x2=".887" y2="-32.483" gradientUnits="userSpaceOnUse"><stop stop-color="#FFC371"/><stop offset="1" stop-color="#FF5F6D"/></linearGradient></defs></svg>