<?xml version="1.0" encoding="UTF-8" standalone="no"?><!DOCTYPE svg PUBLIC "-//W3C//DTD SVG 1.1//EN" "http://www.w3.org/Graphics/SVG/1.1/DTD/svg11.dtd"><svg width="100%" height="100%" viewBox="0 0 1496 1496" version="1.1" xmlns="http://www.w3.org/2000/svg" xmlns:xlink="http://www.w3.org/1999/xlink" xml:space="preserve" xmlns:serif="http://www.serif.com/" style="fill-rule:evenodd;clip-rule:evenodd;stroke-linejoin:round;stroke-miterlimit:2;"><path d="M1445.73,1404.11c-17.308,-17.726 -50.346,-55.234 -77.171,-107.205c-50.341,-97.558 -57.695,-200.287 -21.866,-305.346c36.954,-108.341 54.991,-212.291 53.612,-308.979l0.046,-3.733c-0.004,-374.321 -304.529,-678.85 -678.846,-678.85c-374.312,0.004 -678.841,304.533 -678.841,678.854c-0,374.313 304.525,678.842 678.841,678.842c187.113,-0 361.396,-74.513 490.746,-209.808c3.992,70.8 23.542,139.916 58.117,205.412c35.087,66.479 77.345,113.104 99.416,134.979c3.909,3.879 9.184,6.038 14.671,6.038c0.3,-0 0.609,-0.009 0.917,-0.025c5.808,-0.254 11.237,-2.921 14.996,-7.359l46.358,-54.8c6.929,-8.204 6.504,-20.329 -0.996,-28.021Zm-1012.83,-891.887c-19.783,34.271 -56.683,55.558 -96.304,55.558c-19.383,0 -38.554,-5.15 -55.438,-14.896c-25.695,-14.837 -44.079,-38.791 -51.754,-67.45c-7.679,-28.658 -3.733,-58.595 11.104,-84.295c19.784,-34.271 56.684,-55.559 96.305,-55.559c19.379,0 38.55,5.15 55.429,14.892c53.045,30.642 71.287,98.721 40.658,151.75Zm-203.5,360.037c7.679,-28.658 26.058,-52.608 51.75,-67.45c16.887,-9.741 36.063,-14.895 55.446,-14.895c39.612,-0 76.517,21.283 96.304,55.558c30.629,53.037 12.387,121.104 -40.65,151.746c-16.892,9.75 -36.063,14.9 -55.442,14.9c-39.616,-0 -76.516,-21.288 -96.304,-55.567c-14.837,-25.692 -18.779,-55.629 -11.104,-84.292Zm492.104,139.834c29.675,-0 57.567,11.546 78.554,32.542c20.975,20.979 32.534,48.87 32.534,78.558c-0,61.25 -49.83,111.079 -111.08,111.079c-61.245,0 -111.075,-49.829 -111.075,-111.079c-0.004,-61.259 49.821,-111.1 111.067,-111.1Zm0,-666.496c-61.246,-0 -111.075,-49.829 -111.075,-111.079c0,-61.254 49.829,-111.088 111.075,-111.088c61.25,0 111.079,49.834 111.079,111.088c0,61.25 -49.829,111.079 -111.079,111.079Zm0,188.233c79.967,0 145.029,65.054 145.029,145.025c0,79.959 -65.054,145.017 -145.029,145.017c-79.962,0 -145.017,-65.05 -145.017,-145.017c0.005,-79.971 65.055,-145.025 145.017,-145.025Zm440.363,19.05c-16.9,9.75 -36.063,14.9 -55.455,14.9c-39.616,0 -76.516,-21.287 -96.308,-55.562c-30.633,-53.033 -12.392,-121.1 40.654,-151.742c16.888,-9.75 36.05,-14.9 55.442,-14.9c39.621,0 76.525,21.288 96.312,55.559c30.626,53.05 12.388,121.116 -40.645,151.745Zm-151.759,292.596c19.788,-34.271 56.684,-55.558 96.3,-55.558c19.388,-0 38.559,5.15 55.455,14.9c25.633,14.808 44,38.767 51.679,67.45c7.7,28.708 3.771,58.633 -11.029,84.287c-19.788,34.275 -56.692,55.559 -96.313,55.559c-19.375,-0 -38.55,-5.146 -55.429,-14.888c-53.046,-30.641 -71.283,-98.712 -40.663,-151.75Z" style="fill-rule:nonzero;stroke:#fff;stroke-width:4.17px;"/></svg>