<?xml version="1.0" encoding="UTF-8" standalone="no"?><!DOCTYPE svg PUBLIC "-//W3C//DTD SVG 1.1//EN" "http://www.w3.org/Graphics/SVG/1.1/DTD/svg11.dtd"><svg width="100%" height="100%" viewBox="0 0 29 25" version="1.1" xmlns="http://www.w3.org/2000/svg" xmlns:xlink="http://www.w3.org/1999/xlink" xml:space="preserve" xmlns:serif="http://www.serif.com/" style="fill-rule:evenodd;clip-rule:evenodd;stroke-linejoin:round;stroke-miterlimit:1.41421;"><rect id="Plan-de-travail1" serif:id="Plan de travail1" x="0" y="0" width="28.844" height="24.29" style="fill:none;"/><path id="Arrow-Right-Icon" serif:id="Arrow Right Icon" d="M3.922,13.644l17.368,0l-6.41,6.405c-0.593,0.593 -0.593,1.554 0,2.146c0.593,0.593 1.554,0.593 2.147,0.001l8.953,-8.946c0.304,-0.304 0.45,-0.705 0.442,-1.103c0,-0.001 0,-0.001 0,-0.002c0,0 0,-0.001 0,-0.002c0.008,-0.397 -0.138,-0.798 -0.442,-1.102l-8.953,-8.946c-0.593,-0.593 -1.554,-0.593 -2.147,0c-0.593,0.592 -0.593,1.553 0,2.145l6.41,6.406l-17.368,0c-0.828,0 -1.5,0.671 -1.5,1.499c0,0.828 0.672,1.499 1.5,1.499Z" style="fill:#fff;"/></svg>