<svg width="0" height="0" class="hidden">
  <symbol id="read-more" viewBox="0 0 29 25">
    <path d="M3.922,13.644l17.368,0l-6.41,6.405c-0.593,0.593 -0.593,1.554 0,2.146c0.593,0.593 1.554,0.593 2.147,0.001l8.953,-8.946c0.304,-0.304 0.45,-0.705 0.442,-1.103c0,-0.001 0,-0.001 0,-0.002c0,0 0,-0.001 0,-0.002c0.008,-0.397 -0.138,-0.798 -0.442,-1.102l-8.953,-8.946c-0.593,-0.593 -1.554,-0.593 -2.147,0c-0.593,0.592 -0.593,1.553 0,2.145l6.41,6.406l-17.368,0c-0.828,0 -1.5,0.671 -1.5,1.499c0,0.828 0.672,1.499 1.5,1.499Z"></path>
  </symbol>
</svg>