<?xml version="1.0" encoding="UTF-8" standalone="no"?><!DOCTYPE svg PUBLIC "-//W3C//DTD SVG 1.1//EN" "http://www.w3.org/Graphics/SVG/1.1/DTD/svg11.dtd"><svg width="100%" height="100%" viewBox="0 0 359 359" version="1.1" xmlns="http://www.w3.org/2000/svg" xmlns:xlink="http://www.w3.org/1999/xlink" xml:space="preserve" xmlns:serif="http://www.serif.com/" style="fill-rule:evenodd;clip-rule:evenodd;stroke-linejoin:round;stroke-miterlimit:2;"><path d="M346.975,336.987c-4.154,-4.254 -12.083,-13.256 -18.521,-25.729c-12.082,-23.414 -13.847,-48.069 -5.248,-73.283c8.869,-26.002 13.198,-50.95 12.867,-74.155l0.011,-0.896c-0.001,-89.837 -73.087,-162.924 -162.923,-162.924c-89.835,0.001 -162.922,73.088 -162.922,162.925c0,89.835 73.086,162.922 162.922,162.922c44.907,0 86.735,-17.883 117.779,-50.354c0.958,16.992 5.65,33.58 13.948,49.299c8.421,15.955 18.563,27.145 23.86,32.395c0.938,0.931 2.204,1.449 3.521,1.449c0.072,0 0.146,-0.002 0.22,-0.006c1.394,-0.061 2.697,-0.701 3.599,-1.766l11.126,-13.152c1.663,-1.969 1.561,-4.879 -0.239,-6.725Zm-243.079,-214.053c-4.748,8.225 -13.604,13.334 -23.113,13.334c-4.652,0 -9.253,-1.236 -13.305,-3.575c-6.167,-3.561 -10.579,-9.31 -12.421,-16.188c-1.843,-6.878 -0.896,-14.063 2.665,-20.231c4.748,-8.225 13.604,-13.334 23.113,-13.334c4.651,0 9.252,1.236 13.303,3.574c12.731,7.354 17.109,23.693 9.758,36.42Zm-48.84,86.409c1.843,-6.878 6.254,-12.626 12.42,-16.188c4.053,-2.338 8.655,-3.575 13.307,-3.575c9.507,0 18.364,5.108 23.113,13.334c7.351,12.729 2.973,29.065 -9.756,36.419c-4.054,2.34 -8.655,3.576 -13.306,3.576c-9.508,0 -18.364,-5.109 -23.113,-13.336c-3.561,-6.166 -4.507,-13.351 -2.665,-20.23Zm118.105,33.56c7.122,0 13.816,2.771 18.853,7.81c5.034,5.035 7.808,11.729 7.808,18.854c0,14.7 -11.959,26.659 -26.659,26.659c-14.699,0 -26.658,-11.959 -26.658,-26.659c-0.001,-14.702 11.957,-26.664 26.656,-26.664Zm0,-159.959c-14.699,0 -26.658,-11.959 -26.658,-26.659c0,-14.701 11.959,-26.661 26.658,-26.661c14.7,0 26.659,11.96 26.659,26.661c0,14.7 -11.959,26.659 -26.659,26.659Zm0,45.176c19.192,0 34.807,15.613 34.807,34.806c0,19.19 -15.613,34.804 -34.807,34.804c-19.191,0 -34.804,-15.612 -34.804,-34.804c0.001,-19.193 15.613,-34.806 34.804,-34.806Zm105.687,4.572c-4.056,2.34 -8.655,3.576 -13.309,3.576c-9.508,0 -18.364,-5.109 -23.114,-13.335c-7.352,-12.728 -2.974,-29.064 9.757,-36.418c4.053,-2.34 8.652,-3.576 13.306,-3.576c9.509,0 18.366,5.109 23.115,13.334c7.35,12.732 2.973,29.068 -9.755,36.419Zm-36.422,70.223c4.749,-8.225 13.604,-13.334 23.112,-13.334c4.653,0 9.254,1.236 13.309,3.576c6.152,3.554 10.56,9.304 12.403,16.188c1.848,6.89 0.905,14.072 -2.647,20.229c-4.749,8.226 -13.606,13.334 -23.115,13.334c-4.65,0 -9.252,-1.235 -13.303,-3.573c-12.731,-7.354 -17.108,-23.691 -9.759,-36.42Z" style="fill:#fff;fill-rule:nonzero;"/></svg>