<?xml version="1.0" encoding="UTF-8" standalone="no"?><!DOCTYPE svg PUBLIC "-//W3C//DTD SVG 1.1//EN" "http://www.w3.org/Graphics/SVG/1.1/DTD/svg11.dtd"><svg width="100%" height="100%" viewBox="0 0 14 13" version="1.1" xmlns="http://www.w3.org/2000/svg" xmlns:xlink="http://www.w3.org/1999/xlink" xml:space="preserve" xmlns:serif="http://www.serif.com/" style="fill-rule:evenodd;clip-rule:evenodd;stroke-linejoin:round;stroke-miterlimit:2;"><rect id="Plan-de-travail1" serif:id="Plan de travail1" x="0" y="0" width="13.76" height="12.24" style="fill:none;"/><path id="Arrow-Right-Icon" serif:id="Arrow Right Icon" d="M1.63,6.87l8.684,0l-3.205,3.202c-0.297,0.297 -0.297,0.777 0,1.073c0.296,0.297 0.777,0.297 1.074,0l4.476,-4.473c0.152,-0.152 0.225,-0.352 0.221,-0.551l0,-0.001l0,-0.001c0.004,-0.199 -0.069,-0.399 -0.221,-0.551l-4.476,-4.473c-0.297,-0.296 -0.778,-0.296 -1.074,0c-0.297,0.296 -0.297,0.777 0,1.073l3.205,3.203l-8.684,0c-0.414,0 -0.75,0.335 -0.75,0.749c0,0.414 0.336,0.75 0.75,0.75Z" style="fill:#dd0c0c;"/></svg>